<svg width="127" height="78" viewBox="0 0 127 78" fill="none" xmlns="http://www.w3.org/2000/svg">
    <path d="M-13.1562 37.834L14.8514 9.82629C9.87904 12.6677 5.26181 16.0671 1.08433 19.9233L-3.05928 24.0669C-6.91541 28.2444 -10.3149 32.8616 -13.1562 37.834Z" fill="#F3B63E"/>
    <path d="M-21.5117 60.0914L37.1082 1.47144C35.4846 1.79278 33.8947 2.18178 32.3049 2.6046L-20.3786 55.2881C-20.8014 56.8779 -21.1904 58.4677 -21.5117 60.0914Z" fill="#F3B63E"/>
    <path d="M-23 74.9915C-23 75.1438 -23 75.3129 -23 75.4651L52.482 0C52.3298 0 52.1607 0 52.0085 0C50.9091 0 49.8267 0.0338256 48.7612 0.0676513L-22.9155 71.7443C-22.9662 72.8267 -23 73.9091 -23 74.9915Z" fill="#F3B63E"/>
    <path d="M-21.833 88.2175L65.2174 1.16711C64.1688 0.981067 63.1033 0.811938 62.0547 0.676636L-22.3235 85.0548C-22.1882 86.1034 -22.019 87.1689 -21.833 88.2175Z" fill="#F3B63E"/>
    <path d="M-18.9916 99.2615L76.2615 4.00837C75.3482 3.68703 74.418 3.39951 73.4878 3.12891L-19.8711 96.4878C-19.5836 97.418 -19.2961 98.3482 -18.9916 99.2615Z" fill="#F3B63E"/>
    <path d="M-14.848 109.02L86.0371 8.13489C85.2253 7.72899 84.3965 7.32308 83.5678 6.93408L-16.0488 106.551C-15.6598 107.379 -15.2708 108.208 -14.848 109.02Z" fill="#F3B63E"/>
    <path d="M-9.6387 117.713L94.7304 13.3442C94.0032 12.8368 93.276 12.3463 92.5318 11.8727L-11.1101 115.515C-10.6365 116.259 -10.1461 116.986 -9.6387 117.713Z" fill="#F3B63E"/>
    <path d="M-3.48246 125.46L102.46 19.5175C101.817 18.9424 101.174 18.3674 100.515 17.8093L-5.19067 123.515C-4.63255 124.157 -4.0575 124.817 -3.48246 125.46Z" fill="#F3B63E"/>
    <path d="M3.60418 132.275L109.293 26.587C108.734 25.9274 108.159 25.2678 107.584 24.6251L1.64233 130.567C2.28502 131.142 2.92766 131.717 3.60418 132.275Z" fill="#F3B63E"/>
    <path d="M11.5868 138.178L115.195 34.5698C114.721 33.8257 114.231 33.0984 113.724 32.3712L9.38818 136.723C10.1154 137.214 10.8427 137.704 11.5868 138.178Z" fill="#F3B63E"/>
    <path d="M20.5674 143.1L120.1 43.5675C119.711 42.7388 119.322 41.91 118.899 41.0982L18.0813 141.916C18.91 142.322 19.7387 142.711 20.5674 143.1Z" fill="#F3B63E"/>
    <path d="M30.6645 146.905L123.922 53.6475C123.651 52.7173 123.347 51.7871 123.043 50.8738L27.8909 146.025C28.8042 146.347 29.7343 146.634 30.6645 146.905Z" fill="#F3B63E"/>
    <path d="M42.1312 149.34L126.357 65.1145C126.222 64.049 126.053 62.9835 125.867 61.9349L38.9517 148.85C40.0003 149.036 41.0657 149.205 42.1312 149.34Z" fill="#F3B63E"/>
    <path d="M52.0085 150C53.1755 150 54.3255 149.966 55.4587 149.915L126.915 78.4587C126.966 77.3086 127 76.1585 127 75.0085C127 74.907 127 74.8224 127 74.7209L51.7209 150C51.8055 149.983 51.907 150 52.0085 150Z" fill="#F3B63E"/>
</svg>
