<svg width="87" height="177" viewBox="0 0 87 177" fill="none" xmlns="http://www.w3.org/2000/svg">
    <path d="M11.6152 44.6443L44.6643 11.5952C38.7969 14.948 33.3485 18.9594 28.4191 23.5096L23.5297 28.3991C18.9794 33.3286 14.968 38.7769 11.6152 44.6443Z" fill="#A1A7FF"/>
    <path d="M1.7561 70.9078L70.9276 1.73633C69.0117 2.11551 67.1357 2.57453 65.2597 3.07346L3.0932 65.24C2.59427 67.116 2.13529 68.9919 1.7561 70.9078Z" fill="#A1A7FF"/>
    <path d="M0 88.49C0 88.6696 0 88.8692 0 89.0488L89.0688 0C88.8892 0 88.6896 0 88.51 0C87.2128 0 85.9355 0.0399142 84.6782 0.0798285L0.0997614 84.6582C0.0398899 85.9355 0 87.2128 0 88.49Z" fill="#A1A7FF"/>
    <path d="M1.37663 104.097L104.096 1.3771C102.859 1.15757 101.601 0.957997 100.364 0.79834L0.797852 100.365C0.957509 101.602 1.1571 102.859 1.37663 104.097Z" fill="#A1A7FF"/>
    <path d="M4.73013 117.129L117.129 4.72991C116.051 4.35073 114.953 4.01145 113.856 3.69214L3.69238 113.856C4.03165 114.953 4.3709 116.051 4.73013 117.129Z" fill="#A1A7FF"/>
    <path d="M9.61915 128.644L128.664 9.59945C127.706 9.12048 126.728 8.64151 125.75 8.1825L8.20215 125.73C8.66116 126.708 9.12022 127.686 9.61915 128.644Z" fill="#A1A7FF"/>
    <path d="M15.7663 138.902L138.922 15.7462C138.064 15.1474 137.206 14.5687 136.327 14.0099L14.03 136.307C14.5888 137.185 15.1676 138.044 15.7663 138.902Z" fill="#A1A7FF"/>
    <path d="M23.0306 148.042L148.042 23.0306C147.284 22.352 146.525 21.6735 145.747 21.0149L21.0149 145.747C21.6735 146.505 22.352 147.284 23.0306 148.042Z" fill="#A1A7FF"/>
    <path d="M31.3929 156.085L156.105 31.3728C155.447 30.5944 154.768 29.8161 154.089 29.0577L29.0779 154.069C29.8363 154.748 30.5946 155.426 31.3929 156.085Z" fill="#A1A7FF"/>
    <path d="M40.8124 163.05L163.07 40.7924C162.511 39.9143 161.932 39.0562 161.334 38.198L38.218 161.334C39.0762 161.912 39.9343 162.491 40.8124 163.05Z" fill="#A1A7FF"/>
    <path d="M51.4095 168.858L168.857 51.4098C168.398 50.4319 167.939 49.454 167.44 48.4961L48.4758 167.461C49.4537 167.94 50.4316 168.399 51.4095 168.858Z" fill="#A1A7FF"/>
    <path d="M63.3237 173.348L173.367 63.3039C173.048 62.2062 172.689 61.1086 172.33 60.0309L60.0508 172.31C61.1285 172.689 62.2261 173.028 63.3237 173.348Z" fill="#A1A7FF"/>
    <path d="M76.8549 176.222L176.242 76.835C176.082 75.5777 175.882 74.3204 175.663 73.083L73.103 175.643C74.3404 175.862 75.5976 176.062 76.8549 176.222Z" fill="#A1A7FF"/>
</svg>
