<svg width="75" height="143" viewBox="0 0 75 143" fill="none" xmlns="http://www.w3.org/2000/svg">
    <path d="M9.3252 35.8173L35.8346 9.30786C31.1219 12.0009 26.7625 15.2157 22.8072 18.8681L18.8854 22.7898C15.233 26.7283 12.0182 31.1045 9.3252 35.8173Z" fill="#35B185"/>
    <path d="M1.41406 56.8902L56.9072 1.39703C55.3756 1.7 53.8607 2.07029 52.3627 2.47424L2.4913 52.3457C2.07051 53.8437 1.71703 55.3585 1.41406 56.8902Z" fill="#35B185"/>
    <path d="M0 70.9949C0 71.1463 0 71.2978 0 71.4493L71.4492 0C71.2977 0 71.1463 0 70.9948 0C69.9681 0 68.9414 0.0336515 67.9147 0.0673143L0.0672886 67.9147C0.0336258 68.9414 0 69.9513 0 70.9949Z" fill="#35B185"/>
    <path d="M1.11049 83.5005L83.5338 1.07711C82.5407 0.908798 81.5309 0.740486 80.5379 0.605835L0.656006 80.4876C0.773826 81.5144 0.925341 82.5074 1.11049 83.5005Z" fill="#35B185"/>
    <path d="M3.80397 93.9697L93.9867 3.78707C93.1114 3.4841 92.2362 3.2148 91.361 2.9455L2.97925 91.3272C3.23172 92.2192 3.50101 93.0945 3.80397 93.9697Z" fill="#35B185"/>
    <path d="M7.72558 103.21L103.244 7.69203C102.47 7.30491 101.695 6.91779 100.904 6.56433L6.58105 100.871C6.95135 101.662 7.32162 102.436 7.72558 103.21Z" fill="#35B185"/>
    <path d="M12.6403 111.441L111.458 12.6234C110.767 12.1521 110.077 11.6808 109.387 11.2264L11.2603 109.353C11.7147 110.06 12.1691 110.75 12.6403 111.441Z" fill="#35B185"/>
    <path d="M18.4811 118.762L118.779 18.4642C118.173 17.9088 117.551 17.3702 116.928 16.8484L16.8484 116.928C17.387 117.551 17.9257 118.157 18.4811 118.762Z" fill="#35B185"/>
    <path d="M25.1798 125.226L125.242 25.163C124.721 24.5403 124.182 23.9175 123.627 23.3116L23.3284 123.61C23.9343 124.165 24.557 124.704 25.1798 125.226Z" fill="#35B185"/>
    <path d="M32.7541 130.814L130.848 32.7202C130.393 32.0133 129.939 31.3232 129.45 30.65L30.667 129.433C31.3571 129.905 32.0472 130.376 32.7541 130.814Z" fill="#35B185"/>
    <path d="M41.254 135.476L135.493 41.2368C135.123 40.4457 134.752 39.6715 134.365 38.8973L38.9146 134.348C39.6888 134.735 40.463 135.106 41.254 135.476Z" fill="#35B185"/>
    <path d="M50.8138 139.078L139.111 50.7974C138.842 49.9053 138.573 49.03 138.287 48.1716L48.188 138.27C49.0464 138.539 49.9217 138.809 50.8138 139.078Z" fill="#35B185"/>
    <path d="M61.6532 141.384L141.4 61.6366C141.266 60.6267 141.114 59.6337 140.946 58.6238L58.6572 140.912C59.6503 141.098 60.6433 141.249 61.6532 141.384Z" fill="#35B185"/>
    <path d="M71.0118 142.007C72.1058 142.007 73.1998 141.973 74.277 141.923L141.939 74.2603C141.99 73.1831 142.023 72.0891 142.023 70.995C142.023 70.9109 142.023 70.8099 142.023 70.7257L70.7593 141.99C70.8266 141.99 70.9276 142.007 71.0118 142.007Z" fill="#35B185"/>
</svg>
