<svg width="94" height="94" viewBox="0 0 94 94" fill="none" xmlns="http://www.w3.org/2000/svg">
    <path d="M6.14819 23.6312L23.6418 6.13757C20.536 7.91229 17.6521 10.0356 15.0429 12.4441L12.4548 15.0323C10.0462 17.6415 7.92291 20.5254 6.14819 23.6312Z" fill="#FB7B7B"/>
    <path d="M0.929688 37.5331L37.5437 0.919067C36.5296 1.11978 35.5365 1.36275 34.5436 1.62684L1.63744 34.533C1.37335 35.526 1.1304 36.519 0.929688 37.5331Z" fill="#FB7B7B"/>
    <path d="M0 46.8397C0 46.9348 0 47.0404 0 47.1355L47.1461 0C47.051 0 46.9454 0 46.8503 0C46.1636 0 45.4875 0.0211275 44.822 0.042255L0.0528059 44.8115C0.0211146 45.4876 0 46.1636 0 46.8397Z" fill="#FB7B7B"/>
    <path d="M0.728966 55.1006L55.1006 0.728895C54.4457 0.612694 53.7802 0.507056 53.1252 0.422546L0.422607 53.1251C0.507118 53.7801 0.612764 54.4456 0.728966 55.1006Z" fill="#FB7B7B"/>
    <path d="M2.50365 61.9987L61.9988 2.5036C61.4283 2.30289 60.8473 2.1233 60.2663 1.95428L1.95435 60.2662C2.13393 60.8472 2.3135 61.4283 2.50365 61.9987Z" fill="#FB7B7B"/>
    <path d="M5.09185 68.094L68.1047 5.08114C67.5976 4.82761 67.08 4.57408 66.5624 4.33112L4.3418 66.5517C4.58476 67.0693 4.82775 67.5869 5.09185 68.094Z" fill="#FB7B7B"/>
    <path d="M8.34531 73.5238L73.5343 8.33482C73.08 8.01791 72.6258 7.71156 72.161 7.41577L7.42627 72.1505C7.72205 72.6153 8.0284 73.0695 8.34531 73.5238Z" fill="#FB7B7B"/>
    <path d="M12.1907 78.362L78.3621 12.1906C77.9607 11.8314 77.5593 11.4723 77.1473 11.1237L11.1238 77.1472C11.4724 77.5486 11.8316 77.9606 12.1907 78.362Z" fill="#FB7B7B"/>
    <path d="M16.6167 82.6192L82.6297 16.6063C82.2811 16.1943 81.9219 15.7823 81.5627 15.3809L15.3914 81.5523C15.7928 81.9114 16.1942 82.2706 16.6167 82.6192Z" fill="#FB7B7B"/>
    <path d="M21.603 86.3059L86.3166 21.5923C86.0208 21.1275 85.7145 20.6733 85.3976 20.2191L20.2297 85.3975C20.684 85.7038 21.1382 86.0102 21.603 86.3059Z" fill="#FB7B7B"/>
    <path d="M27.2123 89.38L89.38 27.2122C89.137 26.6946 88.8941 26.177 88.63 25.6699L25.6594 88.6405C26.177 88.894 26.6946 89.137 27.2123 89.38Z" fill="#FB7B7B"/>
    <path d="M33.5188 91.7569L91.7674 33.5083C91.5984 32.9273 91.4083 32.3463 91.2181 31.7758L31.7864 91.2075C32.3568 91.4082 32.9378 91.5878 33.5188 91.7569Z" fill="#FB7B7B"/>
    <path d="M40.681 93.278L93.2886 40.6705C93.2041 40.005 93.0984 39.3395 92.9822 38.6845L38.6951 92.9717C39.35 93.0879 40.0155 93.1935 40.681 93.278Z" fill="#FB7B7B"/>
    <path d="M46.8503 93.69C47.5792 93.69 48.2975 93.6689 49.0052 93.6372L93.6371 49.0053C93.6688 48.287 93.69 47.5686 93.69 46.8503C93.69 46.7869 93.69 46.7341 93.69 46.6707L46.6707 93.69C46.7235 93.6795 46.7869 93.69 46.8503 93.69Z" fill="#FB7B7B"/>
    <path d="M59.3156 91.9998L92.0105 59.3049C92.2851 58.3119 92.5281 57.3084 92.7394 56.2943L56.3049 92.7287C57.3191 92.5174 58.3226 92.2744 59.3156 91.9998Z" fill="#FB7B7B"/>
    <path d="M87.3728 70.3336L70.3335 87.3729C77.3901 83.2742 83.2741 77.3901 87.3728 70.3336Z" fill="#FB7B7B"/>
</svg>
