<svg width="120" height="32" viewBox="0 0 120 32" fill="none" xmlns="http://www.w3.org/2000/svg">
    <g clip-path="url(#clip0_5829_29135)">
        <path d="M43.4176 6.9884C45.0933 6.9884 46.408 7.34621 47.3706 8.05718C48.3332 8.76814 48.81 9.87409 48.81 11.3657C48.831 12.2091 48.6241 13.0416 48.2129 13.7681C47.8071 14.4473 47.2285 14.9958 46.5417 15.3527C45.7533 15.7576 44.8928 15.987 44.0148 16.0265L43.6939 14.7997C44.7294 14.8144 45.7535 15.0271 46.7155 15.4271C47.5418 15.7645 48.2709 16.3182 48.8323 17.0349C49.3588 17.7331 49.6361 18.6005 49.6167 19.4884C49.6397 20.2567 49.4869 21.0197 49.171 21.7142C48.8814 22.3175 48.4545 22.8376 47.9276 23.2291C47.3866 23.6239 46.7832 23.9165 46.145 24.0934C45.4715 24.2778 44.7779 24.37 44.0816 24.3676H39.1304V6.9884H43.4176ZM43.8632 14.586C44.2335 14.6214 44.6066 14.5683 44.9541 14.4306C45.3017 14.2929 45.6145 14.0743 45.8687 13.7914C46.2888 13.2475 46.5099 12.5657 46.4926 11.8676C46.5271 11.4882 46.4715 11.1059 46.3309 10.7542C46.1902 10.4025 45.9687 10.0923 45.686 9.85086C45.0478 9.40369 44.288 9.18364 43.5201 9.22353H41.3497V14.586H43.8632ZM43.9568 22.2068C44.5375 22.2144 45.115 22.1169 45.6637 21.9187C46.1418 21.7471 46.5616 21.4338 46.8714 21.0172C47.1794 20.5825 47.3365 20.0517 47.3171 19.5116C47.3481 18.9336 47.1628 18.3655 46.8001 17.9271C46.4335 17.5305 45.9719 17.2433 45.4632 17.0953C44.9252 16.9279 44.3667 16.8433 43.8053 16.8443H41.3364V22.2068H43.9568Z" fill="#646EFA"/>
        <path d="M52.8468 10.7291C52.845 10.5574 52.878 10.3876 52.9433 10.2321C53.0085 10.0767 53.1043 9.9397 53.2236 9.83137C53.4535 9.60032 53.7516 9.47213 54.0609 9.47135C54.3707 9.46896 54.6698 9.59758 54.8982 9.83137C55.0148 9.9417 55.1082 10.0793 55.1719 10.2344C55.2355 10.3896 55.2679 10.5584 55.2666 10.7291C55.27 10.9014 55.2387 11.0725 55.1749 11.2295C55.1111 11.3865 55.0166 11.5255 54.8982 11.6361C54.6671 11.8638 54.3691 11.9886 54.0609 11.9868C53.7527 11.9886 53.4547 11.8638 53.2236 11.6361C53.1025 11.5275 53.0055 11.3892 52.9401 11.2318C52.8748 11.0745 52.8428 10.9025 52.8468 10.7291V10.7291ZM52.9765 14.3573H55.0112V24.3678H52.9765V14.3573Z" fill="#646EFA"/>
        <path d="M57.6884 18.9768C57.6749 18.0169 57.9081 17.0713 58.3627 16.2418C58.8137 15.4309 59.464 14.7658 60.2437 14.3179C61.0853 13.8361 62.0294 13.5925 62.9852 13.6106C63.9315 13.5896 64.8663 13.8335 65.6958 14.3179C66.4578 14.7697 67.0885 15.4352 67.5191 16.2418C67.9497 17.0799 68.1753 18.0195 68.1753 18.9744C68.1753 19.9293 67.9497 20.8689 67.5191 21.707C67.089 22.5177 66.4585 23.1879 65.6958 23.645C64.8618 24.1405 63.9182 24.3897 62.9631 24.3665C62.0183 24.3871 61.0837 24.1569 60.2437 23.6969C59.4704 23.2618 58.8243 22.6093 58.376 21.8107C57.9027 20.9527 57.6645 19.9711 57.6884 18.9768V18.9768ZM59.8444 18.9768C59.8365 19.5941 59.9786 20.2032 60.257 20.745C60.517 21.2561 60.8958 21.6879 61.3572 21.9993C61.8236 22.3142 62.3662 22.478 62.9187 22.4709C63.4784 22.4799 64.0286 22.3161 64.5024 21.9993C64.9594 21.6953 65.3352 21.2715 65.5937 20.7686C65.8563 20.2209 65.9931 19.615 65.9931 19.0003C65.9931 18.3857 65.8563 17.7797 65.5937 17.2321C65.3375 16.7149 64.962 16.2752 64.5024 15.9542C64.0331 15.6383 63.4875 15.4745 62.932 15.4826C62.3763 15.4725 61.8302 15.6365 61.3616 15.9542C60.8975 16.2758 60.5175 16.717 60.257 17.2368C59.9749 17.7762 59.8268 18.3832 59.8267 19.0003L59.8444 18.9768Z" fill="#646EFA"/>
        <path d="M75.4338 29.3315C74.778 29.3421 74.1244 29.2505 73.4948 29.06C72.957 28.8888 72.4451 28.6402 71.9739 28.3215C71.5162 28.0026 71.0759 27.6575 70.6552 27.2877L71.9647 25.706C72.4411 26.1668 72.976 26.5579 73.5545 26.8684C74.1171 27.1512 74.7352 27.2947 75.3603 27.2877C76.0113 27.3082 76.6583 27.1763 77.2533 26.9018C77.7333 26.6809 78.1382 26.3158 78.4158 25.8537C78.6842 25.3847 78.8285 24.8506 78.8339 24.3053L78.8569 21.5421L79.0453 21.9852C78.7263 22.7353 78.1856 23.3609 77.5015 23.7717C76.6835 24.278 75.7428 24.531 74.7905 24.5006C73.9186 24.5048 73.0627 24.2574 72.3185 23.786C71.5577 23.3132 70.9253 22.6476 70.4806 21.8518C70.0158 21.0168 69.7776 20.0669 69.7914 19.1028C69.772 18.1397 70.0032 17.1889 70.4609 16.3505C70.9185 15.5121 71.5856 14.8171 72.3921 14.3387C73.17 13.862 74.0569 13.6103 74.9605 13.6097C75.7935 13.5997 76.6169 13.794 77.3636 14.1767C78.0177 14.4883 78.5748 14.9833 78.9718 15.6059L78.8294 16.0204L79.0407 14.0528H81.0854V24.3196C81.0944 25.206 80.8602 26.0768 80.41 26.8303C79.9326 27.6102 79.2569 28.2384 78.4572 28.6455C77.517 29.1221 76.4801 29.3574 75.4338 29.3315V29.3315ZM72.0337 19.0552C72.0262 19.6861 72.1851 20.3072 72.4931 20.8513C72.7901 21.3831 73.2162 21.825 73.7291 22.1328C74.2436 22.4487 74.8313 22.6134 75.4292 22.6093C75.973 22.6168 76.5121 22.5031 77.0098 22.2758C77.4644 22.064 77.8666 21.748 78.1861 21.3515C78.4954 20.9706 78.7225 20.5255 78.8523 20.0461V17.9975C78.7158 17.5181 78.4717 17.0789 78.1401 16.716C77.801 16.3515 77.3968 16.0586 76.9501 15.8537C76.4736 15.6304 75.9567 15.5151 75.4338 15.5154C74.8443 15.5111 74.2638 15.6655 73.7491 15.9637C73.2344 16.2618 72.8032 16.6934 72.4977 17.2162C72.1814 17.7692 72.0207 18.4029 72.0337 19.0457V19.0552Z" fill="#646EFA"/>
        <path d="M88.9557 24.3656C87.9452 24.3943 86.9447 24.1552 86.0506 23.6714C85.2653 23.2334 84.6148 22.5791 84.1723 21.7823C83.7162 20.9345 83.486 19.9783 83.5047 19.0101C83.4943 18.0511 83.755 17.1095 84.2551 16.2993C84.7478 15.4867 85.4317 14.8144 86.244 14.3441C87.0841 13.8502 88.0382 13.5974 89.0063 13.612C90.186 13.5718 91.3371 13.9901 92.229 14.7833C93.1298 15.6439 93.7462 16.7716 93.9922 18.0089L85.8481 20.9417L85.3232 19.5957L91.9666 17.0785L91.5062 17.4233C91.3221 16.876 90.9996 16.3886 90.5716 16.0112C90.0811 15.6037 89.4618 15.3953 88.8314 15.4256C88.2663 15.4154 87.7098 15.5675 87.2246 15.8648C86.7554 16.1564 86.3732 16.5746 86.1197 17.0738C85.8389 17.6272 85.6995 18.2447 85.7146 18.8684C85.7036 19.5049 85.8459 20.1343 86.1289 20.7008C86.3944 21.2251 86.8 21.6609 87.2983 21.9571C87.8135 22.2708 88.4025 22.4341 89.0017 22.4293C89.4291 22.4302 89.8526 22.3468 90.2493 22.1838C90.6578 22.021 91.0458 21.8085 91.4049 21.5509L92.4131 23.218C91.9008 23.5695 91.345 23.8491 90.7604 24.0492C90.1799 24.2558 89.5701 24.3627 88.9557 24.3656V24.3656Z" fill="#646EFA"/>
        <path d="M101.059 24.3657C100.049 24.3937 99.0484 24.1547 98.1542 23.6715C97.3697 23.2322 96.7195 22.5783 96.2758 21.7824C95.8197 20.9346 95.5895 19.9784 95.6082 19.0102C95.5978 18.0512 95.8585 17.1096 96.3587 16.2994C96.8513 15.4869 97.5352 14.8145 98.3475 14.3442C99.1876 13.8504 100.142 13.5975 101.11 13.6122C102.29 13.5709 103.441 13.9894 104.333 14.7834C105.235 15.6426 105.852 16.7709 106.096 18.009L97.9516 20.9418L97.4406 19.5769L104.089 17.0597L103.628 17.4045C103.436 16.8619 103.107 16.3812 102.675 16.0113C102.186 15.6037 101.569 15.3952 100.939 15.4257C100.382 15.4119 99.8313 15.559 99.3511 15.8504C98.8708 16.1418 98.48 16.5658 98.2232 17.0739C97.9424 17.6273 97.803 18.2448 97.8181 18.8685C97.8071 19.505 97.9494 20.1344 98.2324 20.7009C98.5029 21.2278 98.9151 21.6638 99.4202 21.9572C99.8663 22.2142 100.362 22.3662 100.873 22.4022C101.383 22.4381 101.895 22.3571 102.371 22.165C102.78 22.0022 103.168 21.7897 103.527 21.5321L104.53 23.2181C104.017 23.5697 103.459 23.8492 102.873 24.0493C102.29 24.257 101.677 24.3639 101.059 24.3657V24.3657Z" fill="#646EFA"/>
        <path d="M108.516 24.3678V5.33337H110.687V24.3678H108.516ZM110.013 21.1176L109.807 18.9049L115.616 13.956L116.957 15.1646L110.013 21.1176ZM113.02 17.601L117.391 24.3678H114.87L111.563 18.9049L113.02 17.601Z" fill="#646EFA"/>
        <path d="M15.6513 32.0001C24.2319 32.0001 31.1878 24.8896 31.1878 16.1184C31.1878 7.34709 24.2319 0.236572 15.6513 0.236572C7.07069 0.236572 0.114746 7.34709 0.114746 16.1184C0.114746 24.8896 7.07069 32.0001 15.6513 32.0001Z" fill="white"/>
        <path d="M15.6522 32C12.5565 32 9.53028 31.0616 6.9563 29.3035C4.38231 27.5454 2.37613 25.0466 1.19146 22.1229C0.00678208 19.1993 -0.303183 15.9823 0.300759 12.8786C0.904702 9.77487 2.39543 6.92394 4.58442 4.6863C6.77342 2.44866 9.56237 0.924806 12.5986 0.307443C15.6348 -0.309921 18.7819 0.0069328 21.642 1.21793C24.5021 2.42894 26.9466 4.4797 28.6665 7.11088C30.3864 9.74207 31.3043 12.8355 31.3043 16C31.2996 20.242 29.6491 24.3089 26.7147 27.3084C23.7804 30.3079 19.8019 31.9952 15.6522 32V32ZM15.6522 1.4777C12.8422 1.4768 10.095 2.32775 7.7582 3.92294C5.42135 5.51812 3.59976 7.78588 2.52382 10.4394C1.44787 13.0929 1.1659 16.013 1.71356 18.8304C2.26122 21.6477 3.61392 24.2358 5.60057 26.2672C7.58722 28.2987 10.1186 29.6822 12.8745 30.2429C15.6305 30.8037 18.4872 30.5163 21.0833 29.4173C23.6795 28.3183 25.8985 26.4569 27.4598 24.0686C29.021 21.6804 29.8543 18.8724 29.8543 16C29.8473 12.1515 28.3489 8.46252 25.6871 5.74075C23.0253 3.01898 19.4171 1.48611 15.6522 1.4777Z" fill="white"/>
        <path d="M15.653 28.8446C22.5926 28.8446 28.2183 23.0939 28.2183 16.0001C28.2183 8.90622 22.5926 3.15552 15.653 3.15552C8.71333 3.15552 3.08765 8.90622 3.08765 16.0001C3.08765 23.0939 8.71333 28.8446 15.653 28.8446Z" fill="#646EFA"/>
        <path d="M15.6522 32C12.5565 32 9.53028 31.0616 6.9563 29.3035C4.38231 27.5454 2.37613 25.0466 1.19146 22.1229C0.00678208 19.1993 -0.303183 15.9823 0.300759 12.8786C0.904702 9.77487 2.39543 6.92394 4.58442 4.6863C6.77342 2.44866 9.56237 0.924806 12.5986 0.307443C15.6348 -0.309921 18.7819 0.0069328 21.642 1.21793C24.5021 2.42894 26.9466 4.4797 28.6665 7.11088C30.3864 9.74207 31.3043 12.8355 31.3043 16C31.2996 20.242 29.6491 24.3089 26.7147 27.3084C23.7804 30.3079 19.8019 31.9952 15.6522 32V32ZM15.6522 1.4777C12.8422 1.4768 10.095 2.32775 7.7582 3.92294C5.42135 5.51812 3.59976 7.78588 2.52382 10.4394C1.44787 13.0929 1.1659 16.013 1.71356 18.8304C2.26122 21.6477 3.61392 24.2358 5.60057 26.2672C7.58722 28.2987 10.1186 29.6822 12.8745 30.2429C15.6305 30.8037 18.4872 30.5163 21.0833 29.4173C23.6795 28.3183 25.8985 26.4569 27.4598 24.0686C29.021 21.6804 29.8543 18.8724 29.8543 16C29.8473 12.1515 28.3489 8.46252 25.6871 5.74075C23.0253 3.01898 19.4171 1.48611 15.6522 1.4777Z" fill="#646EFA"/>
        <path d="M15.6522 32C12.5565 32 9.53028 31.0616 6.9563 29.3035C4.38231 27.5454 2.37613 25.0466 1.19146 22.1229C0.00678208 19.1993 -0.303183 15.9823 0.300759 12.8786C0.904702 9.77487 2.39543 6.92394 4.58442 4.6863C6.77342 2.44866 9.56237 0.924806 12.5986 0.307443C15.6348 -0.309921 18.7819 0.0069328 21.642 1.21793C24.5021 2.42894 26.9466 4.4797 28.6665 7.11088C30.3864 9.74207 31.3043 12.8355 31.3043 16C31.2996 20.242 29.6491 24.3089 26.7147 27.3084C23.7804 30.3079 19.8019 31.9952 15.6522 32V32ZM15.6522 1.4777C12.8422 1.4768 10.095 2.32775 7.7582 3.92294C5.42135 5.51812 3.59976 7.78588 2.52382 10.4394C1.44787 13.0929 1.1659 16.013 1.71356 18.8304C2.26122 21.6477 3.61392 24.2358 5.60057 26.2672C7.58722 28.2987 10.1186 29.6822 12.8745 30.2429C15.6305 30.8037 18.4872 30.5163 21.0833 29.4173C23.6795 28.3183 25.8985 26.4569 27.4598 24.0686C29.021 21.6804 29.8543 18.8724 29.8543 16C29.8473 12.1515 28.3489 8.46252 25.6871 5.74075C23.0253 3.01898 19.4171 1.48611 15.6522 1.4777Z" fill="#646EFA"/>
        <path d="M15.6309 26.8213C13.8348 26.8257 12.0801 26.2706 10.6003 25.2299L11.4143 24.0205C12.6578 24.9004 14.1364 25.3672 15.6487 25.3573C17.1636 25.368 18.6505 24.9392 19.9365 24.1205L20.706 25.3482C19.1858 26.3226 17.4252 26.8336 15.6309 26.8213V26.8213Z" fill="#FDFDFD"/>
        <path d="M15.6528 11.2077C14.2978 11.209 12.9963 11.7487 12.0233 12.7127V8.13867H10.4043V17.3958C10.5689 19.9739 13.0419 21.9426 15.6573 21.9426C17.0493 21.9426 18.3842 21.3773 19.3685 20.3712C20.3528 19.365 20.9058 18.0004 20.9058 16.5774C20.9058 15.1545 20.3528 13.7899 19.3685 12.7837C18.3842 11.7775 17.0493 11.2123 15.6573 11.2123L15.6528 11.2077ZM15.6528 20.3012C14.9337 20.3021 14.2305 20.0849 13.6322 19.6771C13.034 19.2692 12.5675 18.6891 12.2919 18.0102C12.0163 17.3312 11.944 16.5839 12.084 15.8629C12.2241 15.1419 12.5703 14.4796 13.0788 13.9598C13.5873 13.4401 14.2352 13.0862 14.9405 12.943C15.6458 12.7998 16.3769 12.8738 17.0411 13.1555C17.7053 13.4372 18.2728 13.914 18.6717 14.5256C19.0707 15.1372 19.2832 15.856 19.2823 16.5911C19.2764 17.5715 18.8916 18.5099 18.2117 19.2015C17.5318 19.8931 16.612 20.2819 15.6528 20.283V20.3012Z" fill="white"/>
    </g>
    <defs>
        <clipPath id="clip0_5829_29135">
            <rect width="120" height="32" fill="white"/>
        </clipPath>
    </defs>
</svg>
